<svg xmlns="http://www.w3.org/2000/svg" xmlns:olab="http://www.originlab.com/namespaces/olab" width="460" height="340" viewBox="0 0 460 340">
 <!-- Generated by Origin -->
 <rect x="0" y="0" width="460" height="340" fill="#ffffff"/>
 <polyline olab:scope="Layer0.Axis0.SubAxis0.Line" points="70,270 450,270" fill="none" stroke="#000000" stroke-width="1.2"/>
 <polyline olab:scope="Layer0.Axis1.SubAxis0.Line" points="70,270 70,30" fill="none" stroke="#000000" stroke-width="1.2"/>
 <polyline olab:scope="Layer0.Axis1.SubAxis0.Tick-Major" points="70,270 76,270" fill="none" stroke="#000000" stroke-width="1"/>
 <polyline olab:scope="Layer0.Axis1.SubAxis0.Tick-Major" points="70,210 76,210" fill="none" stroke="#000000" stroke-width="1"/>
 <polyline olab:scope="Layer0.Axis1.SubAxis0.Tick-Major" points="70,150 76,150" fill="none" stroke="#000000" stroke-width="1"/>
 <polyline olab:scope="Layer0.Axis1.SubAxis0.Tick-Major" points="70,90 76,90" fill="none" stroke="#000000" stroke-width="1"/>
 <polyline olab:scope="Layer0.Axis1.SubAxis0.Tick-Major" points="70,30 76,30" fill="none" stroke="#000000" stroke-width="1"/>
 <text olab:scope="Layer0.Axis1.SubAxis0.TickLabel-Major" x="62" y="274" fill="#000000" font-family="Arial" font-size="11" text-anchor="end">0</text>
 <text olab:scope="Layer0.Axis1.SubAxis0.TickLabel-Major" x="62" y="214" fill="#000000" font-family="Arial" font-size="11" text-anchor="end">20</text>
 <text olab:scope="Layer0.Axis1.SubAxis0.TickLabel-Major" x="62" y="154" fill="#000000" font-family="Arial" font-size="11" text-anchor="end">40</text>
 <text olab:scope="Layer0.Axis1.SubAxis0.TickLabel-Major" x="62" y="94" fill="#000000" font-family="Arial" font-size="11" text-anchor="end">60</text>
 <text olab:scope="Layer0.Axis1.SubAxis0.TickLabel-Major" x="62" y="34" fill="#000000" font-family="Arial" font-size="11" text-anchor="end">80</text>
 <text olab:scope="Layer0.Axis0.SubAxis0.TickLabel-Major" x="135" y="286" fill="#000000" font-family="Arial" font-size="11" text-anchor="middle">Alpha</text>
 <text olab:scope="Layer0.Axis0.SubAxis0.TickLabel-Major" x="230" y="286" fill="#000000" font-family="Arial" font-size="11" text-anchor="middle">Beta</text>
 <text olab:scope="Layer0.Axis0.SubAxis0.TickLabel-Major" x="325" y="286" fill="#000000" font-family="Arial" font-size="11" text-anchor="middle">Gamma</text>
 <text olab:scope="Layer0.Axis0.SubAxis0.TickLabel-Major" x="420" y="286" fill="#000000" font-family="Arial" font-size="11" text-anchor="middle">Delta</text>
 <text olab:scope="Layer0.Axis0.SubAxis0.Title" x="260" y="306" fill="#000000" font-family="Arial" font-size="13" text-anchor="middle">Treatment group</text>
 <text olab:scope="Layer0.Axis1.SubAxis0.Title" x="28" y="150" transform="rotate(-90 28 150)" fill="#000000" font-family="Arial" font-size="13" text-anchor="middle">Activity (U/mg)</text>
 <rect olab:scope="Layer0.Plot0" x="112" y="114" width="22" height="156" fill="#1f77b4"/>
 <rect olab:scope="Layer0.Plot0" x="207" y="156" width="22" height="114" fill="#1f77b4"/>
 <rect olab:scope="Layer0.Plot0" x="302" y="96" width="22" height="174" fill="#1f77b4"/>
 <rect olab:scope="Layer0.Plot0" x="397" y="138" width="22" height="132" fill="#1f77b4"/>
 <rect olab:scope="Layer0.Plot1" x="136" y="150" width="22" height="120" fill="#ff7f0e"/>
 <rect olab:scope="Layer0.Plot1" x="231" y="186" width="22" height="84" fill="#ff7f0e"/>
 <rect olab:scope="Layer0.Plot1" x="326" y="132" width="22" height="138" fill="#ff7f0e"/>
 <rect olab:scope="Layer0.Plot1" x="421" y="174" width="22" height="96" fill="#ff7f0e"/>
 <rect olab:scope="Layer0" x="300" y="44" width="10" height="10" fill="#1f77b4"/>
 <text olab:scope="Layer0" x="316" y="53" fill="#000000" font-family="Arial" font-size="11">Wild type</text>
 <rect olab:scope="Layer0" x="300" y="60" width="10" height="10" fill="#ff7f0e"/>
 <text olab:scope="Layer0" x="316" y="69" fill="#000000" font-family="Arial" font-size="11">Mutant</text>
</svg>
