<svg xmlns="http://www.w3.org/2000/svg" xmlns:olab="http://www.originlab.com/namespaces/olab" width="460" height="340" viewBox="0 0 460 340">
 <!-- Generated by Origin -->
 <rect x="0" y="0" width="460" height="340" fill="#ffffff"/>
 <polyline olab:scope="Layer0.Axis0.SubAxis0.Line" points="70,270 450,270" fill="none" stroke="#000000" stroke-width="1.2"/>
 <polyline olab:scope="Layer0.Axis1.SubAxis0.Line" points="70,270 70,30" fill="none" stroke="#000000" stroke-width="1.2"/>
 <polyline olab:scope="Layer0.Axis0.SubAxis0.Tick-Major" points="70,270 70,264" fill="none" stroke="#000000" stroke-width="1"/>
 <polyline olab:scope="Layer0.Axis0.SubAxis0.Tick-Major" points="165,270 165,264" fill="none" stroke="#000000" stroke-width="1"/>
 <polyline olab:scope="Layer0.Axis0.SubAxis0.Tick-Major" points="260,270 260,264" fill="none" stroke="#000000" stroke-width="1"/>
 <polyline olab:scope="Layer0.Axis0.SubAxis0.Tick-Major" points="355,270 355,264" fill="none" stroke="#000000" stroke-width="1"/>
 <polyline olab:scope="Layer0.Axis0.SubAxis0.Tick-Major" points="450,270 450,264" fill="none" stroke="#000000" stroke-width="1"/>
 <polyline olab:scope="Layer0.Axis1.SubAxis0.Tick-Major" points="70,270 76,270" fill="none" stroke="#000000" stroke-width="1"/>
 <polyline olab:scope="Layer0.Axis1.SubAxis0.Tick-Major" points="70,210 76,210" fill="none" stroke="#000000" stroke-width="1"/>
 <polyline olab:scope="Layer0.Axis1.SubAxis0.Tick-Major" points="70,150 76,150" fill="none" stroke="#000000" stroke-width="1"/>
 <polyline olab:scope="Layer0.Axis1.SubAxis0.Tick-Major" points="70,90 76,90" fill="none" stroke="#000000" stroke-width="1"/>
 <polyline olab:scope="Layer0.Axis1.SubAxis0.Tick-Major" points="70,30 76,30" fill="none" stroke="#000000" stroke-width="1"/>
 <text olab:scope="Layer0.Axis0.SubAxis0.TickLabel-Major" x="70" y="286" fill="#000000" font-family="Arial" font-size="11" text-anchor="middle">300</text>
 <text olab:scope="Layer0.Axis0.SubAxis0.TickLabel-Major" x="165" y="286" fill="#000000" font-family="Arial" font-size="11" text-anchor="middle">400</text>
 <text olab:scope="Layer0.Axis0.SubAxis0.TickLabel-Major" x="260" y="286" fill="#000000" font-family="Arial" font-size="11" text-anchor="middle">500</text>
 <text olab:scope="Layer0.Axis0.SubAxis0.TickLabel-Major" x="355" y="286" fill="#000000" font-family="Arial" font-size="11" text-anchor="middle">600</text>
 <text olab:scope="Layer0.Axis0.SubAxis0.TickLabel-Major" x="450" y="286" fill="#000000" font-family="Arial" font-size="11" text-anchor="middle">700</text>
 <text olab:scope="Layer0.Axis1.SubAxis0.TickLabel-Major" x="62" y="274" fill="#000000" font-family="Arial" font-size="11" text-anchor="end">0</text>
 <text olab:scope="Layer0.Axis1.SubAxis0.TickLabel-Major" x="62" y="214" fill="#000000" font-family="Arial" font-size="11" text-anchor="end">25</text>
 <text olab:scope="Layer0.Axis1.SubAxis0.TickLabel-Major" x="62" y="154" fill="#000000" font-family="Arial" font-size="11" text-anchor="end">50</text>
 <text olab:scope="Layer0.Axis1.SubAxis0.TickLabel-Major" x="62" y="94" fill="#000000" font-family="Arial" font-size="11" text-anchor="end">75</text>
 <text olab:scope="Layer0.Axis1.SubAxis0.TickLabel-Major" x="62" y="34" fill="#000000" font-family="Arial" font-size="11" text-anchor="end">100</text>
 <text olab:scope="Layer0.Axis0.SubAxis0.Title" x="260" y="306" fill="#000000" font-family="Arial" font-size="13" text-anchor="middle">Wavelength (nm)</text>
 <text olab:scope="Layer0.Axis1.SubAxis0.Title" x="28" y="150" transform="rotate(-90 28 150)" fill="#000000" font-family="Arial" font-size="13" text-anchor="middle">Intensity (%)</text>
 <polygon olab:scope="Layer0.Plot2" points="70,178 165,150 260,120 355,138 450,108 450,270 70,270" fill="#2ca02c"/>
 <polygon olab:scope="Layer0.Plot1" points="70,210 165,188 260,164 355,176 450,158 450,270 70,270" fill="#ff7f0e"/>
 <polygon olab:scope="Layer0.Plot0" points="70,244 165,228 260,212 355,222 450,206 450,270 70,270" fill="#1f77b4"/>
 <rect olab:scope="Layer0" x="300" y="44" width="10" height="10" fill="#1f77b4"/>
 <text olab:scope="Layer0" x="316" y="53" fill="#000000" font-family="Arial" font-size="11">Layer 1</text>
 <rect olab:scope="Layer0" x="300" y="60" width="10" height="10" fill="#ff7f0e"/>
 <text olab:scope="Layer0" x="316" y="69" fill="#000000" font-family="Arial" font-size="11">Layer 2</text>
 <rect olab:scope="Layer0" x="300" y="76" width="10" height="10" fill="#2ca02c"/>
 <text olab:scope="Layer0" x="316" y="85" fill="#000000" font-family="Arial" font-size="11">Layer 3</text>
</svg>
