<svg xmlns="http://www.w3.org/2000/svg" xmlns:olab="http://www.originlab.com/namespaces/olab" width="460" height="340" viewBox="0 0 460 340">
 <!-- Generated by Origin -->
 <rect x="0" y="0" width="460" height="340" fill="#ffffff"/>
 <polyline olab:scope="Layer0.Axis0.SubAxis0.Line" points="70,270 450,270" fill="none" stroke="#000000" stroke-width="1.2"/>
 <polyline olab:scope="Layer0.Axis1.SubAxis0.Line" points="70,270 70,30" fill="none" stroke="#000000" stroke-width="1.2"/>
 <polyline olab:scope="Layer0.Axis2.SubAxis0.Line" points="450,270 450,30" fill="none" stroke="#000000" stroke-width="1.2"/>
 <polyline olab:scope="Layer0.Axis0.SubAxis0.Tick-Major" points="70,270 70,264" fill="none" stroke="#000000" stroke-width="1"/>
 <polyline olab:scope="Layer0.Axis0.SubAxis0.Tick-Major" points="146,270 146,264" fill="none" stroke="#000000" stroke-width="1"/>
 <polyline olab:scope="Layer0.Axis0.SubAxis0.Tick-Major" points="222,270 222,264" fill="none" stroke="#000000" stroke-width="1"/>
 <polyline olab:scope="Layer0.Axis0.SubAxis0.Tick-Major" points="298,270 298,264" fill="none" stroke="#000000" stroke-width="1"/>
 <polyline olab:scope="Layer0.Axis0.SubAxis0.Tick-Major" points="374,270 374,264" fill="none" stroke="#000000" stroke-width="1"/>
 <polyline olab:scope="Layer0.Axis0.SubAxis0.Tick-Major" points="450,270 450,264" fill="none" stroke="#000000" stroke-width="1"/>
 <polyline olab:scope="Layer0.Axis1.SubAxis0.Tick-Major" points="70,270 76,270" fill="none" stroke="#000000" stroke-width="1"/>
 <polyline olab:scope="Layer0.Axis1.SubAxis0.Tick-Major" points="70,210 76,210" fill="none" stroke="#000000" stroke-width="1"/>
 <polyline olab:scope="Layer0.Axis1.SubAxis0.Tick-Major" points="70,150 76,150" fill="none" stroke="#000000" stroke-width="1"/>
 <polyline olab:scope="Layer0.Axis1.SubAxis0.Tick-Major" points="70,90 76,90" fill="none" stroke="#000000" stroke-width="1"/>
 <polyline olab:scope="Layer0.Axis1.SubAxis0.Tick-Major" points="70,30 76,30" fill="none" stroke="#000000" stroke-width="1"/>
 <polyline olab:scope="Layer0.Axis2.SubAxis0.Tick-Major" points="450,270 444,270" fill="none" stroke="#000000" stroke-width="1"/>
 <polyline olab:scope="Layer0.Axis2.SubAxis0.Tick-Major" points="450,210 444,210" fill="none" stroke="#000000" stroke-width="1"/>
 <polyline olab:scope="Layer0.Axis2.SubAxis0.Tick-Major" points="450,150 444,150" fill="none" stroke="#000000" stroke-width="1"/>
 <polyline olab:scope="Layer0.Axis2.SubAxis0.Tick-Major" points="450,90 444,90" fill="none" stroke="#000000" stroke-width="1"/>
 <polyline olab:scope="Layer0.Axis2.SubAxis0.Tick-Major" points="450,30 444,30" fill="none" stroke="#000000" stroke-width="1"/>
 <text olab:scope="Layer0.Axis0.SubAxis0.TickLabel-Major" x="70" y="286" fill="#000000" font-family="Arial" font-size="11" text-anchor="middle">0</text>
 <text olab:scope="Layer0.Axis0.SubAxis0.TickLabel-Major" x="146" y="286" fill="#000000" font-family="Arial" font-size="11" text-anchor="middle">10</text>
 <text olab:scope="Layer0.Axis0.SubAxis0.TickLabel-Major" x="222" y="286" fill="#000000" font-family="Arial" font-size="11" text-anchor="middle">20</text>
 <text olab:scope="Layer0.Axis0.SubAxis0.TickLabel-Major" x="298" y="286" fill="#000000" font-family="Arial" font-size="11" text-anchor="middle">30</text>
 <text olab:scope="Layer0.Axis0.SubAxis0.TickLabel-Major" x="374" y="286" fill="#000000" font-family="Arial" font-size="11" text-anchor="middle">40</text>
 <text olab:scope="Layer0.Axis0.SubAxis0.TickLabel-Major" x="450" y="286" fill="#000000" font-family="Arial" font-size="11" text-anchor="middle">50</text>
 <text olab:scope="Layer0.Axis1.SubAxis0.TickLabel-Major" x="62" y="274" fill="#000000" font-family="Arial" font-size="11" text-anchor="end">0</text>
 <text olab:scope="Layer0.Axis1.SubAxis0.TickLabel-Major" x="62" y="214" fill="#000000" font-family="Arial" font-size="11" text-anchor="end">5</text>
 <text olab:scope="Layer0.Axis1.SubAxis0.TickLabel-Major" x="62" y="154" fill="#000000" font-family="Arial" font-size="11" text-anchor="end">10</text>
 <text olab:scope="Layer0.Axis1.SubAxis0.TickLabel-Major" x="62" y="94" fill="#000000" font-family="Arial" font-size="11" text-anchor="end">15</text>
 <text olab:scope="Layer0.Axis1.SubAxis0.TickLabel-Major" x="62" y="34" fill="#000000" font-family="Arial" font-size="11" text-anchor="end">20</text>
 <text olab:scope="Layer0.Axis2.SubAxis0.TickLabel-Major" x="458" y="274" fill="#000000" font-family="Arial" font-size="11" text-anchor="start">0.0</text>
 <text olab:scope="Layer0.Axis2.SubAxis0.TickLabel-Major" x="458" y="214" fill="#000000" font-family="Arial" font-size="11" text-anchor="start">0.2</text>
 <text olab:scope="Layer0.Axis2.SubAxis0.TickLabel-Major" x="458" y="154" fill="#000000" font-family="Arial" font-size="11" text-anchor="start">0.4</text>
 <text olab:scope="Layer0.Axis2.SubAxis0.TickLabel-Major" x="458" y="94" fill="#000000" font-family="Arial" font-size="11" text-anchor="start">0.6</text>
 <text olab:scope="Layer0.Axis2.SubAxis0.TickLabel-Major" x="458" y="34" fill="#000000" font-family="Arial" font-size="11" text-anchor="start">0.8</text>
 <text olab:scope="Layer0.Axis0.SubAxis0.Title" x="260" y="306" fill="#000000" font-family="Arial" font-size="13" text-anchor="middle">Temperature (C)</text>
 <text olab:scope="Layer0.Axis1.SubAxis0.Title" x="26" y="150" transform="rotate(-90 26 150)" fill="#000000" font-family="Arial" font-size="13" text-anchor="middle">Conductivity (S/m)</text>
 <text olab:scope="Layer0.Axis2.SubAxis0.Title" x="446" y="150" transform="rotate(-90 446 150)" fill="#1f77b4" font-family="Arial" font-size="13" text-anchor="middle">Absorbance</text>
 <polyline olab:scope="Layer0.Plot0" points="70,250 108,236 146,210 184,200 222,176 260,158 298,144 336,118 374,104 412,84 450,66" fill="none" stroke="#1f77b4" stroke-width="1.8"/>
 <polyline olab:scope="Layer0.Plot1" points="70,90 108,108 146,126 184,140 222,158 260,170 298,188 336,200 374,214 412,228 450,242" fill="none" stroke="#8b0000" stroke-width="1.8"/>
 <polyline olab:scope="Layer0" points="150,48 172,48" fill="none" stroke="#1f77b4" stroke-width="1.8"/>
 <text olab:scope="Layer0" x="178" y="52" fill="#000000" font-family="Arial" font-size="11">Absorbance</text>
 <polyline olab:scope="Layer0" points="150,64 172,64" fill="none" stroke="#8b0000" stroke-width="1.8"/>
 <text olab:scope="Layer0" x="178" y="68" fill="#000000" font-family="Arial" font-size="11">Conductivity</text>
</svg>
