<svg xmlns="http://www.w3.org/2000/svg" xmlns:olab="http://www.originlab.com/namespaces/olab" width="460" height="340" viewBox="0 0 460 340">
 <!-- Generated by Origin -->
 <rect x="0" y="0" width="460" height="340" fill="#ffffff"/>
 <polyline olab:scope="Layer0.Axis0.SubAxis0.Line" points="70,270 450,270" fill="none" stroke="#000000" stroke-width="1.2"/>
 <polyline olab:scope="Layer0.Axis1.SubAxis0.Line" points="70,270 70,30" fill="none" stroke="#000000" stroke-width="1.2"/>
 <polyline olab:scope="Layer0.Axis0.SubAxis0.Tick-Major" points="70,270 70,264" fill="none" stroke="#000000" stroke-width="1"/>
 <polyline olab:scope="Layer0.Axis0.SubAxis0.Tick-Major" points="146,270 146,264" fill="none" stroke="#000000" stroke-width="1"/>
 <polyline olab:scope="Layer0.Axis0.SubAxis0.Tick-Major" points="222,270 222,264" fill="none" stroke="#000000" stroke-width="1"/>
 <polyline olab:scope="Layer0.Axis0.SubAxis0.Tick-Major" points="298,270 298,264" fill="none" stroke="#000000" stroke-width="1"/>
 <polyline olab:scope="Layer0.Axis0.SubAxis0.Tick-Major" points="374,270 374,264" fill="none" stroke="#000000" stroke-width="1"/>
 <polyline olab:scope="Layer0.Axis0.SubAxis0.Tick-Major" points="450,270 450,264" fill="none" stroke="#000000" stroke-width="1"/>
 <polyline olab:scope="Layer0.Axis1.SubAxis0.Tick-Major" points="70,270 76,270" fill="none" stroke="#000000" stroke-width="1"/>
 <polyline olab:scope="Layer0.Axis1.SubAxis0.Tick-Major" points="70,210 76,210" fill="none" stroke="#000000" stroke-width="1"/>
 <polyline olab:scope="Layer0.Axis1.SubAxis0.Tick-Major" points="70,150 76,150" fill="none" stroke="#000000" stroke-width="1"/>
 <polyline olab:scope="Layer0.Axis1.SubAxis0.Tick-Major" points="70,90 76,90" fill="none" stroke="#000000" stroke-width="1"/>
 <polyline olab:scope="Layer0.Axis1.SubAxis0.Tick-Major" points="70,30 76,30" fill="none" stroke="#000000" stroke-width="1"/>
 <text olab:scope="Layer0.Axis0.SubAxis0.TickLabel-Major" x="70" y="286" fill="#000000" font-family="Arial" font-size="11" text-anchor="middle">0</text>
 <text olab:scope="Layer0.Axis0.SubAxis0.TickLabel-Major" x="146" y="286" fill="#000000" font-family="Arial" font-size="11" text-anchor="middle">20</text>
 <text olab:scope="Layer0.Axis0.SubAxis0.TickLabel-Major" x="222" y="286" fill="#000000" font-family="Arial" font-size="11" text-anchor="middle">40</text>
 <text olab:scope="Layer0.Axis0.SubAxis0.TickLabel-Major" x="298" y="286" fill="#000000" font-family="Arial" font-size="11" text-anchor="middle">60</text>
 <text olab:scope="Layer0.Axis0.SubAxis0.TickLabel-Major" x="374" y="286" fill="#000000" font-family="Arial" font-size="11" text-anchor="middle">80</text>
 <text olab:scope="Layer0.Axis0.SubAxis0.TickLabel-Major" x="450" y="286" fill="#000000" font-family="Arial" font-size="11" text-anchor="middle">100</text>
 <text olab:scope="Layer0.Axis1.SubAxis0.TickLabel-Major" x="62" y="274" fill="#000000" font-family="Arial" font-size="11" text-anchor="end">0</text>
 <text olab:scope="Layer0.Axis1.SubAxis0.TickLabel-Major" x="62" y="214" fill="#000000" font-family="Arial" font-size="11" text-anchor="end">2</text>
 <text olab:scope="Layer0.Axis1.SubAxis0.TickLabel-Major" x="62" y="154" fill="#000000" font-family="Arial" font-size="11" text-anchor="end">4</text>
 <text olab:scope="Layer0.Axis1.SubAxis0.TickLabel-Major" x="62" y="94" fill="#000000" font-family="Arial" font-size="11" text-anchor="end">6</text>
 <text olab:scope="Layer0.Axis1.SubAxis0.TickLabel-Major" x="62" y="34" fill="#000000" font-family="Arial" font-size="11" text-anchor="end">8</text>
 <text olab:scope="Layer0.Axis0.SubAxis0.Title" x="260" y="306" fill="#000000" font-family="Arial" font-size="13" text-anchor="middle">Concentration (mM)</text>
 <text olab:scope="Layer0.Axis1.SubAxis0.Title" x="28" y="150" transform="rotate(-90 28 150)" fill="#000000" font-family="Arial" font-size="13" text-anchor="middle">Response (a.u.)</text>
 <circle olab:scope="Layer0.Plot0" cx="92" cy="238" r="3.4" fill="#1f77b4"/>
 <circle olab:scope="Layer0.Plot0" cx="108" cy="226" r="3.4" fill="#1f77b4"/>
 <circle olab:scope="Layer0.Plot0" cx="124" cy="232" r="3.4" fill="#1f77b4"/>
 <circle olab:scope="Layer0.Plot0" cx="118" cy="218" r="3.4" fill="#1f77b4"/>
 <circle olab:scope="Layer0.Plot0" cx="100" cy="222" r="3.4" fill="#1f77b4"/>
 <circle olab:scope="Layer0.Plot0" cx="132" cy="214" r="3.4" fill="#1f77b4"/>
 <circle olab:scope="Layer0.Plot0" cx="86" cy="246" r="3.4" fill="#1f77b4"/>
 <circle olab:scope="Layer0.Plot0" cx="114" cy="240" r="3.4" fill="#1f77b4"/>
 <circle olab:scope="Layer0.Plot1" cx="230" cy="170" r="3.4" fill="#ff7f0e"/>
 <circle olab:scope="Layer0.Plot1" cx="246" cy="158" r="3.4" fill="#ff7f0e"/>
 <circle olab:scope="Layer0.Plot1" cx="262" cy="166" r="3.4" fill="#ff7f0e"/>
 <circle olab:scope="Layer0.Plot1" cx="254" cy="148" r="3.4" fill="#ff7f0e"/>
 <circle olab:scope="Layer0.Plot1" cx="238" cy="152" r="3.4" fill="#ff7f0e"/>
 <circle olab:scope="Layer0.Plot1" cx="270" cy="160" r="3.4" fill="#ff7f0e"/>
 <circle olab:scope="Layer0.Plot1" cx="224" cy="178" r="3.4" fill="#ff7f0e"/>
 <circle olab:scope="Layer0.Plot1" cx="258" cy="174" r="3.4" fill="#ff7f0e"/>
 <circle olab:scope="Layer0.Plot2" cx="372" cy="108" r="3.4" fill="#2ca02c"/>
 <circle olab:scope="Layer0.Plot2" cx="388" cy="96" r="3.4" fill="#2ca02c"/>
 <circle olab:scope="Layer0.Plot2" cx="404" cy="104" r="3.4" fill="#2ca02c"/>
 <circle olab:scope="Layer0.Plot2" cx="396" cy="86" r="3.4" fill="#2ca02c"/>
 <circle olab:scope="Layer0.Plot2" cx="380" cy="90" r="3.4" fill="#2ca02c"/>
 <circle olab:scope="Layer0.Plot2" cx="412" cy="98" r="3.4" fill="#2ca02c"/>
 <circle olab:scope="Layer0.Plot2" cx="366" cy="116" r="3.4" fill="#2ca02c"/>
 <circle olab:scope="Layer0.Plot2" cx="400" cy="120" r="3.4" fill="#2ca02c"/>
 <rect olab:scope="Layer0" x="96" y="44" width="8" height="8" fill="#1f77b4"/>
 <text olab:scope="Layer0" x="110" y="52" fill="#000000" font-family="Arial" font-size="11">Low dose</text>
 <rect olab:scope="Layer0" x="96" y="60" width="8" height="8" fill="#ff7f0e"/>
 <text olab:scope="Layer0" x="110" y="68" fill="#000000" font-family="Arial" font-size="11">Mid dose</text>
 <rect olab:scope="Layer0" x="96" y="76" width="8" height="8" fill="#2ca02c"/>
 <text olab:scope="Layer0" x="110" y="84" fill="#000000" font-family="Arial" font-size="11">High dose</text>
</svg>
