<svg xmlns="http://www.w3.org/2000/svg" xmlns:olab="http://www.originlab.com/namespaces/olab" width="460" height="340" viewBox="0 0 460 340">
 <!-- Generated by Origin -->
 <rect x="0" y="0" width="460" height="340" fill="#ffffff"/>
 <polyline olab:scope="Layer0.Axis0.SubAxis0.Line" points="70,270 450,270" fill="none" stroke="#000000" stroke-width="1.2"/>
 <polyline olab:scope="Layer0.Axis1.SubAxis0.Line" points="70,270 70,30" fill="none" stroke="#000000" stroke-width="1.2"/>
 <polyline olab:scope="Layer0.Axis0.SubAxis0.Tick-Major" points="70,270 70,264" fill="none" stroke="#000000" stroke-width="1"/>
 <polyline olab:scope="Layer0.Axis0.SubAxis0.Tick-Major" points="146,270 146,264" fill="none" stroke="#000000" stroke-width="1"/>
 <polyline olab:scope="Layer0.Axis0.SubAxis0.Tick-Major" points="222,270 222,264" fill="none" stroke="#000000" stroke-width="1"/>
 <polyline olab:scope="Layer0.Axis0.SubAxis0.Tick-Major" points="298,270 298,264" fill="none" stroke="#000000" stroke-width="1"/>
 <polyline olab:scope="Layer0.Axis0.SubAxis0.Tick-Major" points="374,270 374,264" fill="none" stroke="#000000" stroke-width="1"/>
 <polyline olab:scope="Layer0.Axis0.SubAxis0.Tick-Major" points="450,270 450,264" fill="none" stroke="#000000" stroke-width="1"/>
 <polyline olab:scope="Layer0.Axis1.SubAxis0.Tick-Major" points="70,270 76,270" fill="none" stroke="#000000" stroke-width="1"/>
 <polyline olab:scope="Layer0.Axis1.SubAxis0.Tick-Major" points="70,210 76,210" fill="none" stroke="#000000" stroke-width="1"/>
 <polyline olab:scope="Layer0.Axis1.SubAxis0.Tick-Major" points="70,150 76,150" fill="none" stroke="#000000" stroke-width="1"/>
 <polyline olab:scope="Layer0.Axis1.SubAxis0.Tick-Major" points="70,90 76,90" fill="none" stroke="#000000" stroke-width="1"/>
 <polyline olab:scope="Layer0.Axis1.SubAxis0.Tick-Major" points="70,30 76,30" fill="none" stroke="#000000" stroke-width="1"/>
 <text olab:scope="Layer0.Axis0.SubAxis0.TickLabel-Major" x="70" y="286" fill="#000000" font-family="Arial" font-size="11" text-anchor="middle">0</text>
 <text olab:scope="Layer0.Axis0.SubAxis0.TickLabel-Major" x="146" y="286" fill="#000000" font-family="Arial" font-size="11" text-anchor="middle">2</text>
 <text olab:scope="Layer0.Axis0.SubAxis0.TickLabel-Major" x="222" y="286" fill="#000000" font-family="Arial" font-size="11" text-anchor="middle">4</text>
 <text olab:scope="Layer0.Axis0.SubAxis0.TickLabel-Major" x="298" y="286" fill="#000000" font-family="Arial" font-size="11" text-anchor="middle">6</text>
 <text olab:scope="Layer0.Axis0.SubAxis0.TickLabel-Major" x="374" y="286" fill="#000000" font-family="Arial" font-size="11" text-anchor="middle">8</text>
 <text olab:scope="Layer0.Axis0.SubAxis0.TickLabel-Major" x="450" y="286" fill="#000000" font-family="Arial" font-size="11" text-anchor="middle">10</text>
 <text olab:scope="Layer0.Axis1.SubAxis0.TickLabel-Major" x="62" y="274" fill="#000000" font-family="Arial" font-size="11" text-anchor="end">0</text>
 <text olab:scope="Layer0.Axis1.SubAxis0.TickLabel-Major" x="62" y="214" fill="#000000" font-family="Arial" font-size="11" text-anchor="end">25</text>
 <text olab:scope="Layer0.Axis1.SubAxis0.TickLabel-Major" x="62" y="154" fill="#000000" font-family="Arial" font-size="11" text-anchor="end">50</text>
 <text olab:scope="Layer0.Axis1.SubAxis0.TickLabel-Major" x="62" y="94" fill="#000000" font-family="Arial" font-size="11" text-anchor="end">75</text>
 <text olab:scope="Layer0.Axis1.SubAxis0.TickLabel-Major" x="62" y="34" fill="#000000" font-family="Arial" font-size="11" text-anchor="end">100</text>
 <text olab:scope="Layer0.Axis0.SubAxis0.Title" x="260" y="306" fill="#000000" font-family="Arial" font-size="13" text-anchor="middle">Time (h)</text>
 <text olab:scope="Layer0.Axis1.SubAxis0.Title" x="28" y="150" transform="rotate(-90 28 150)" fill="#000000" font-family="Arial" font-size="13" text-anchor="middle">Yield (%)</text>
 <polyline olab:scope="Layer0.Plot0" points="70,258 108,244 146,222 184,210 222,178 260,168 298,142 336,128 374,110 412,92 450,78" fill="none" stroke="#1f77b4" stroke-width="1.8"/>
 <polyline olab:scope="Layer0.Plot1" points="70,262 108,255 146,240 184,232 222,214 260,200 298,196 336,176 374,170 412,158 450,150" fill="none" stroke="#ff7f0e" stroke-width="1.8"/>
 <polyline olab:scope="Layer0.Plot2" points="70,266 108,250 146,252 184,228 222,236 260,206 298,214 336,188 374,196 412,172 450,182" fill="none" stroke="#2ca02c" stroke-width="1.8"/>
 <polyline olab:scope="Layer0" points="340,48 362,48" fill="none" stroke="#1f77b4" stroke-width="1.8"/>
 <text olab:scope="Layer0" x="368" y="52" fill="#000000" font-family="Arial" font-size="11">Sample A</text>
 <polyline olab:scope="Layer0" points="340,64 362,64" fill="none" stroke="#ff7f0e" stroke-width="1.8"/>
 <text olab:scope="Layer0" x="368" y="68" fill="#000000" font-family="Arial" font-size="11">Sample B</text>
 <polyline olab:scope="Layer0" points="340,80 362,80" fill="none" stroke="#2ca02c" stroke-width="1.8"/>
 <text olab:scope="Layer0" x="368" y="84" fill="#000000" font-family="Arial" font-size="11">Sample C</text>
</svg>
