<svg xmlns="http://www.w3.org/2000/svg" xmlns:olab="http://www.originlab.com/namespaces/olab" width="460" height="340" viewBox="0 0 460 340">
 <!-- Generated by Origin -->
 <rect x="0" y="0" width="460" height="340" fill="#ffffff"/>
 <polyline olab:scope="Layer0.Axis0.SubAxis0.Line" points="70,270 450,270" fill="none" stroke="#000000" stroke-width="1.2"/>
 <polyline olab:scope="Layer0.Axis1.SubAxis0.Line" points="70,270 70,30" fill="none" stroke="#000000" stroke-width="1.2"/>
 <polyline olab:scope="Layer0.Axis0.SubAxis0.Tick-Major" points="70,270 70,264" fill="none" stroke="#000000" stroke-width="1"/>
 <polyline olab:scope="Layer0.Axis0.SubAxis0.Tick-Major" points="146,270 146,264" fill="none" stroke="#000000" stroke-width="1"/>
 <polyline olab:scope="Layer0.Axis0.SubAxis0.Tick-Major" points="222,270 222,264" fill="none" stroke="#000000" stroke-width="1"/>
 <polyline olab:scope="Layer0.Axis0.SubAxis0.Tick-Major" points="298,270 298,264" fill="none" stroke="#000000" stroke-width="1"/>
 <polyline olab:scope="Layer0.Axis0.SubAxis0.Tick-Major" points="374,270 374,264" fill="none" stroke="#000000" stroke-width="1"/>
 <polyline olab:scope="Layer0.Axis0.SubAxis0.Tick-Major" points="450,270 450,264" fill="none" stroke="#000000" stroke-width="1"/>
 <polyline olab:scope="Layer0.Axis1.SubAxis0.Tick-Major" points="70,270 76,270" fill="none" stroke="#000000" stroke-width="1"/>
 <polyline olab:scope="Layer0.Axis1.SubAxis0.Tick-Major" points="70,210 76,210" fill="none" stroke="#000000" stroke-width="1"/>
 <polyline olab:scope="Layer0.Axis1.SubAxis0.Tick-Major" points="70,150 76,150" fill="none" stroke="#000000" stroke-width="1"/>
 <polyline olab:scope="Layer0.Axis1.SubAxis0.Tick-Major" points="70,90 76,90" fill="none" stroke="#000000" stroke-width="1"/>
 <polyline olab:scope="Layer0.Axis1.SubAxis0.Tick-Major" points="70,30 76,30" fill="none" stroke="#000000" stroke-width="1"/>
 <text olab:scope="Layer0.Axis0.SubAxis0.TickLabel-Major" x="70" y="286" fill="#000000" font-family="Arial" font-size="11" text-anchor="middle">10</text>
 <text olab:scope="Layer0.Axis0.SubAxis0.TickLabel-Major" x="146" y="286" fill="#000000" font-family="Arial" font-size="11" text-anchor="middle">20</text>
 <text olab:scope="Layer0.Axis0.SubAxis0.TickLabel-Major" x="222" y="286" fill="#000000" font-family="Arial" font-size="11" text-anchor="middle">30</text>
 <text olab:scope="Layer0.Axis0.SubAxis0.TickLabel-Major" x="298" y="286" fill="#000000" font-family="Arial" font-size="11" text-anchor="middle">40</text>
 <text olab:scope="Layer0.Axis0.SubAxis0.TickLabel-Major" x="374" y="286" fill="#000000" font-family="Arial" font-size="11" text-anchor="middle">50</text>
 <text olab:scope="Layer0.Axis0.SubAxis0.TickLabel-Major" x="450" y="286" fill="#000000" font-family="Arial" font-size="11" text-anchor="middle">60</text>
 <text olab:scope="Layer0.Axis1.SubAxis0.TickLabel-Major" x="62" y="274" fill="#000000" font-family="Arial" font-size="11" text-anchor="end">0</text>
 <text olab:scope="Layer0.Axis1.SubAxis0.TickLabel-Major" x="62" y="154" fill="#000000" font-family="Arial" font-size="11" text-anchor="end">2000</text>
 <text olab:scope="Layer0.Axis1.SubAxis0.TickLabel-Major" x="62" y="34" fill="#000000" font-family="Arial" font-size="11" text-anchor="end">4000</text>
 <text olab:scope="Layer0.Axis0.SubAxis0.Title" x="260" y="306" fill="#000000" font-family="Arial" font-size="13" text-anchor="middle">2-theta (degree)</text>
 <text olab:scope="Layer0.Axis1.SubAxis0.Title" x="28" y="150" transform="rotate(-90 28 150)" fill="#000000" font-family="Arial" font-size="13" text-anchor="middle">Intensity (a.u.)</text>
 <polyline olab:scope="Layer0.Plot0" points="70,250 110,250 118,250 122,210 126,250 150,250 168,250 172,232 176,250 210,250 232,250 236,200 240,250 286,250 300,250 304,238 308,250 350,250 372,250 376,224 380,250 420,250 450,250" fill="none" stroke="#1f77b4" stroke-width="1.4"/>
 <polyline olab:scope="Layer0.Plot1" points="70,195 104,195 112,195 116,150 120,195 158,195 176,195 180,170 184,195 224,195 246,195 250,138 254,195 292,195 312,195 316,178 320,195 360,195 388,195 392,166 396,195 430,195 450,195" fill="none" stroke="#ff7f0e" stroke-width="1.4"/>
 <polyline olab:scope="Layer0.Plot2" points="70,140 116,140 124,140 128,96 132,140 164,140 182,140 186,116 190,140 232,140 252,140 256,84 260,140 300,140 318,140 322,120 326,140 366,140 396,140 400,110 404,140 436,140 450,140" fill="none" stroke="#2ca02c" stroke-width="1.4"/>
 <polyline olab:scope="Layer0.Plot3" points="70,85 108,85 116,85 120,46 124,85 154,85 174,85 178,62 182,85 220,85 244,85 248,38 252,85 296,85 314,85 318,66 322,85 362,85 392,85 396,58 400,85 432,85 450,85" fill="none" stroke="#d62728" stroke-width="1.4"/>
 <polyline olab:scope="Layer0" points="356,250 374,250" fill="none" stroke="#1f77b4" stroke-width="1.4"/>
 <text olab:scope="Layer0" x="380" y="254" fill="#000000" font-family="Arial" font-size="11">300 K</text>
 <polyline olab:scope="Layer0" points="356,195 374,195" fill="none" stroke="#ff7f0e" stroke-width="1.4"/>
 <text olab:scope="Layer0" x="380" y="199" fill="#000000" font-family="Arial" font-size="11">500 K</text>
 <polyline olab:scope="Layer0" points="246,140 264,140" fill="none" stroke="#2ca02c" stroke-width="1.4"/>
 <text olab:scope="Layer0" x="270" y="144" fill="#000000" font-family="Arial" font-size="11">700 K</text>
 <polyline olab:scope="Layer0" points="246,85 264,85" fill="none" stroke="#d62728" stroke-width="1.4"/>
 <text olab:scope="Layer0" x="270" y="89" fill="#000000" font-family="Arial" font-size="11">900 K</text>
</svg>
